<svg width="50" height="50" viewBox="0 0 50 50" fill="none" xmlns="http://www.w3.org/2000/svg">
<rect width="50" height="50" rx="10" fill="#FFC400"/>
<path d="M38.3333 34.3333C38.3333 35.0406 38.0524 35.7189 37.5523 36.219C37.0522 36.719 36.3739 37 35.6667 37H14.3333C13.6261 37 12.9478 36.719 12.4477 36.219C11.9476 35.7189 11.6667 35.0406 11.6667 34.3333V15.6667C11.6667 14.9594 11.9476 14.2811 12.4477 13.781C12.9478 13.281 13.6261 13 14.3333 13H21L23.6667 17H35.6667C36.3739 17 37.0522 17.281 37.5523 17.781C38.0524 18.2811 38.3333 18.9594 38.3333 19.6667V34.3333Z" fill="white"/>
</svg>
