<svg width="50" height="50" viewBox="0 0 50 50" fill="none" xmlns="http://www.w3.org/2000/svg">
<rect width="50" height="50" rx="10" fill="url(#paint0_linear_90_12)"/>
<g filter="url(#filter0_d_90_12)">
<path d="M10 19V13C10 11.3431 11.3431 10 13 10H19C20.6569 10 22 11.3431 22 13V19C22 20.6569 20.6569 22 19 22H13C11.3431 22 10 20.6569 10 19Z" fill="white"/>
<path d="M28 19V13C28 11.3431 29.3431 10 31 10H37C38.6569 10 40 11.3431 40 13V19C40 20.6569 38.6569 22 37 22H31C29.3431 22 28 20.6569 28 19Z" fill="white"/>
<path d="M31 28H37C38.6569 28 40 29.3431 40 31V37C40 38.6569 38.6569 40 37 40H31C29.3431 40 28 38.6569 28 37V31C28 29.3431 29.3431 28 31 28Z" fill="white"/>
<path d="M13 28H19C20.6569 28 22 29.3431 22 31V37C22 38.6569 20.6569 40 19 40H13C11.3431 40 10 38.6569 10 37V31C10 29.3431 11.3431 28 13 28Z" fill="white"/>
</g>
<defs>
<filter id="filter0_d_90_12" x="6" y="8" width="38" height="38" filterUnits="userSpaceOnUse" color-interpolation-filters="sRGB">
<feFlood flood-opacity="0" result="BackgroundImageFix"/>
<feColorMatrix in="SourceAlpha" type="matrix" values="0 0 0 0 0 0 0 0 0 0 0 0 0 0 0 0 0 0 127 0" result="hardAlpha"/>
<feOffset dy="2"/>
<feGaussianBlur stdDeviation="2"/>
<feComposite in2="hardAlpha" operator="out"/>
<feColorMatrix type="matrix" values="0 0 0 0 0 0 0 0 0 0 0 0 0 0 0 0 0 0 0.25 0"/>
<feBlend mode="normal" in2="BackgroundImageFix" result="effect1_dropShadow_90_12"/>
<feBlend mode="normal" in="SourceGraphic" in2="effect1_dropShadow_90_12" result="shape"/>
</filter>
<linearGradient id="paint0_linear_90_12" x1="-4.01778e-07" y1="34.1736" x2="50" y2="15.8264" gradientUnits="userSpaceOnUse">
<stop stop-color="#007AE6"/>
<stop offset="1" stop-color="#4EACFF"/>
</linearGradient>
</defs>
</svg>
