<svg width="50" height="50" viewBox="0 0 50 50" fill="none" xmlns="http://www.w3.org/2000/svg">
<rect width="50" height="50" rx="10" fill="#007AE6"/>
<path d="M10 19V13C10 11.3431 11.3431 10 13 10H19C20.6569 10 22 11.3431 22 13V19C22 20.6569 20.6569 22 19 22H13C11.3431 22 10 20.6569 10 19Z" fill="white"/>
<path d="M28 19V13C28 11.3431 29.3431 10 31 10H37C38.6569 10 40 11.3431 40 13V19C40 20.6569 38.6569 22 37 22H31C29.3431 22 28 20.6569 28 19Z" fill="white"/>
<path d="M31 28H37C38.6569 28 40 29.3431 40 31V37C40 38.6569 38.6569 40 37 40H31C29.3431 40 28 38.6569 28 37V31C28 29.3431 29.3431 28 31 28Z" fill="white"/>
<path d="M13 28H19C20.6569 28 22 29.3431 22 31V37C22 38.6569 20.6569 40 19 40H13C11.3431 40 10 38.6569 10 37V31C10 29.3431 11.3431 28 13 28Z" fill="white"/>
</svg>
