<svg width="50" height="50" viewBox="0 0 50 50" fill="none" xmlns="http://www.w3.org/2000/svg">
<rect width="50" height="50" rx="10" fill="url(#paint0_linear_92_22)"/>
<g filter="url(#filter0_d_92_22)">
<path d="M17.6286 38.4C17.0286 39.2 15.8286 39.2 15.2286 38.4L10.3 31.8286C10.1053 31.5689 10 31.2531 10 30.9286V11.5C10 10.6716 10.6716 10 11.5 10H38.5C39.3284 10 40 10.6716 40 11.5V29.9286C40 30.757 39.3284 31.4286 38.5 31.4286H23.6071C23.135 31.4286 22.6904 31.6509 22.4071 32.0286L17.6286 38.4Z" fill="white"/>
</g>
<defs>
<filter id="filter0_d_92_22" x="6" y="8" width="38" height="37" filterUnits="userSpaceOnUse" color-interpolation-filters="sRGB">
<feFlood flood-opacity="0" result="BackgroundImageFix"/>
<feColorMatrix in="SourceAlpha" type="matrix" values="0 0 0 0 0 0 0 0 0 0 0 0 0 0 0 0 0 0 127 0" result="hardAlpha"/>
<feOffset dy="2"/>
<feGaussianBlur stdDeviation="2"/>
<feComposite in2="hardAlpha" operator="out"/>
<feColorMatrix type="matrix" values="0 0 0 0 0 0 0 0 0 0 0 0 0 0 0 0 0 0 0.25 0"/>
<feBlend mode="normal" in2="BackgroundImageFix" result="effect1_dropShadow_92_22"/>
<feBlend mode="normal" in="SourceGraphic" in2="effect1_dropShadow_92_22" result="shape"/>
</filter>
<linearGradient id="paint0_linear_92_22" x1="-4.01778e-07" y1="34.1736" x2="50" y2="15.8264" gradientUnits="userSpaceOnUse">
<stop stop-color="#007AE6"/>
<stop offset="1" stop-color="#4EACFF"/>
</linearGradient>
</defs>
</svg>
