<svg width="50" height="50" viewBox="0 0 50 50" fill="none" xmlns="http://www.w3.org/2000/svg">
<rect width="50" height="50" rx="10" fill="url(#paint0_linear_92_81)"/>
<mask id="mask0_92_81" style="mask-type:alpha" maskUnits="userSpaceOnUse" x="10" y="10" width="30" height="30">
<rect x="10" y="10" width="30" height="30" fill="#D9D9D9"/>
</mask>
<g mask="url(#mask0_92_81)">
<g filter="url(#filter0_d_92_81)">
<path d="M21.6667 40C19.8333 40 18.2639 39.3472 16.9583 38.0417C15.6528 36.7361 15 35.1667 15 33.3333C15 31.5 15.6528 29.9306 16.9583 28.625C18.2639 27.3194 19.8333 26.6667 21.6667 26.6667C22.3056 26.6667 22.8958 26.7431 23.4375 26.8958C23.9792 27.0486 24.5 27.2778 25 27.5833V11.6667C25 11.1944 25.1597 10.7986 25.4792 10.4792C25.7986 10.1597 26.1944 10 26.6667 10H33.3333C33.8056 10 34.2014 10.1597 34.5208 10.4792C34.8403 10.7986 35 11.1944 35 11.6667V15C35 15.4722 34.8403 15.8681 34.5208 16.1875C34.2014 16.5069 33.8056 16.6667 33.3333 16.6667H28.3333V33.3333C28.3333 35.1667 27.6806 36.7361 26.375 38.0417C25.0694 39.3472 23.5 40 21.6667 40Z" fill="white"/>
</g>
</g>
<defs>
<filter id="filter0_d_92_81" x="11" y="8" width="28" height="38" filterUnits="userSpaceOnUse" color-interpolation-filters="sRGB">
<feFlood flood-opacity="0" result="BackgroundImageFix"/>
<feColorMatrix in="SourceAlpha" type="matrix" values="0 0 0 0 0 0 0 0 0 0 0 0 0 0 0 0 0 0 127 0" result="hardAlpha"/>
<feOffset dy="2"/>
<feGaussianBlur stdDeviation="2"/>
<feComposite in2="hardAlpha" operator="out"/>
<feColorMatrix type="matrix" values="0 0 0 0 0 0 0 0 0 0 0 0 0 0 0 0 0 0 0.25 0"/>
<feBlend mode="normal" in2="BackgroundImageFix" result="effect1_dropShadow_92_81"/>
<feBlend mode="normal" in="SourceGraphic" in2="effect1_dropShadow_92_81" result="shape"/>
</filter>
<linearGradient id="paint0_linear_92_81" x1="-4.01778e-07" y1="34.1736" x2="50" y2="15.8264" gradientUnits="userSpaceOnUse">
<stop stop-color="#C400FF"/>
<stop offset="1" stop-color="#FF0084"/>
</linearGradient>
</defs>
</svg>
