<svg width="50" height="50" viewBox="0 0 50 50" fill="none" xmlns="http://www.w3.org/2000/svg">
<rect width="50" height="50" rx="10" fill="url(#paint0_linear_92_52)"/>
<g filter="url(#filter0_d_92_52)">
<path d="M39.9991 32.4608V36.977C40.0008 37.3962 39.9147 37.8112 39.7464 38.1954C39.5781 38.5795 39.3313 38.9243 39.0218 39.2078C38.7122 39.4912 38.3467 39.707 37.9488 39.8413C37.5508 39.9756 37.1292 40.0255 36.7108 39.9878C32.0692 39.4844 27.6106 37.9015 23.6934 35.3662C20.0488 33.0549 16.9589 29.9711 14.643 26.3338C12.0938 22.4065 10.5074 17.9351 10.0122 13.2819C9.97455 12.8656 10.0241 12.4461 10.1578 12.0499C10.2915 11.6538 10.5063 11.2898 10.7887 10.9811C11.0711 10.6724 11.4148 10.4257 11.7979 10.2569C12.181 10.088 12.5951 10.0005 13.0139 10.0001H17.5391C18.2712 9.99296 18.9808 10.2517 19.5359 10.7281C20.0909 11.2044 20.4534 11.866 20.5559 12.5894C20.7469 14.0347 21.1011 15.4538 21.6118 16.8196C21.8147 17.3584 21.8586 17.944 21.7383 18.507C21.618 19.07 21.3386 19.5867 20.933 19.996L19.0173 21.9079C21.1646 25.6767 24.2914 28.7973 28.0677 30.9403L29.9833 29.0284C30.3935 28.6237 30.9112 28.3448 31.4753 28.2247C32.0394 28.1046 32.6262 28.1485 33.1661 28.351C34.5346 28.8607 35.9565 29.2142 37.4046 29.4048C38.1374 29.508 38.8065 29.8763 39.2849 30.4398C39.7633 31.0032 40.0174 31.7225 39.9991 32.4608Z" fill="white"/>
</g>
<defs>
<filter id="filter0_d_92_52" x="6" y="8" width="38" height="38" filterUnits="userSpaceOnUse" color-interpolation-filters="sRGB">
<feFlood flood-opacity="0" result="BackgroundImageFix"/>
<feColorMatrix in="SourceAlpha" type="matrix" values="0 0 0 0 0 0 0 0 0 0 0 0 0 0 0 0 0 0 127 0" result="hardAlpha"/>
<feOffset dy="2"/>
<feGaussianBlur stdDeviation="2"/>
<feComposite in2="hardAlpha" operator="out"/>
<feColorMatrix type="matrix" values="0 0 0 0 0 0 0 0 0 0 0 0 0 0 0 0 0 0 0.25 0"/>
<feBlend mode="normal" in2="BackgroundImageFix" result="effect1_dropShadow_92_52"/>
<feBlend mode="normal" in="SourceGraphic" in2="effect1_dropShadow_92_52" result="shape"/>
</filter>
<linearGradient id="paint0_linear_92_52" x1="-4.01778e-07" y1="34.1736" x2="50" y2="15.8264" gradientUnits="userSpaceOnUse">
<stop stop-color="#14AE5C"/>
<stop offset="1" stop-color="#0BFF7D"/>
</linearGradient>
</defs>
</svg>
