<svg width="50" height="50" viewBox="0 0 50 50" fill="none" xmlns="http://www.w3.org/2000/svg">
<rect width="50" height="50" rx="10" fill="#222222"/>
<path fill-rule="evenodd" clip-rule="evenodd" d="M34.3813 29.9475C34.3029 29.5149 34.3558 29.0688 34.5333 28.6667C34.7024 28.2723 34.983 27.936 35.3407 27.6991C35.6984 27.4622 36.1176 27.335 36.5467 27.3333H36.6667C37.3739 27.3333 38.0522 27.0524 38.5523 26.5523C39.0524 26.0522 39.3333 25.3739 39.3333 24.6667C39.3333 23.9594 39.0524 23.2811 38.5523 22.781C38.0522 22.281 37.3739 22 36.6667 22H36.44C36.011 21.9983 35.5918 21.8712 35.234 21.6343C34.8763 21.3974 34.5957 21.061 34.4267 20.6667V20.56C34.2492 20.1578 34.1962 19.7117 34.2747 19.2792C34.3531 18.8467 34.5593 18.4476 34.8667 18.1333L34.9467 18.0533C35.1946 17.8057 35.3913 17.5116 35.5255 17.1878C35.6597 16.8641 35.7288 16.5171 35.7288 16.1667C35.7288 15.8162 35.6597 15.4692 35.5255 15.1455C35.3913 14.8218 35.1946 14.5277 34.9467 14.28C34.699 14.0321 34.4049 13.8354 34.0812 13.7012C33.7574 13.567 33.4104 13.4979 33.06 13.4979C32.7096 13.4979 32.3626 13.567 32.0388 13.7012C31.7151 13.8354 31.421 14.0321 31.1733 14.28L31.0933 14.36C30.7791 14.6674 30.38 14.8736 29.9475 14.952C29.5149 15.0304 29.0688 14.9775 28.6667 14.8C28.2723 14.631 27.936 14.3503 27.6991 13.9926C27.4622 13.6349 27.335 13.2157 27.3333 12.7867V12.6667C27.3333 11.9594 27.0524 11.2811 26.5523 10.781C26.0522 10.281 25.3739 10 24.6667 10C23.9594 10 23.2811 10.281 22.781 10.781C22.281 11.2811 22 11.9594 22 12.6667V12.8933C21.9983 13.3224 21.8712 13.7416 21.6343 14.0993C21.3974 14.457 21.061 14.7376 20.6667 14.9067H20.56C20.1578 15.0842 19.7117 15.1371 19.2792 15.0587C18.8467 14.9802 18.4476 14.774 18.1333 14.4667L18.0533 14.3867C17.8057 14.1387 17.5116 13.942 17.1878 13.8078C16.8641 13.6736 16.5171 13.6046 16.1667 13.6046C15.8162 13.6046 15.4692 13.6736 15.1455 13.8078C14.8218 13.942 14.5277 14.1387 14.28 14.3867C14.0321 14.6343 13.8354 14.9284 13.7012 15.2522C13.567 15.5759 13.4979 15.9229 13.4979 16.2733C13.4979 16.6238 13.567 16.9708 13.7012 17.2945C13.8354 17.6182 14.0321 17.9123 14.28 18.16L14.36 18.24C14.6674 18.5542 14.8736 18.9534 14.952 19.3859C15.0304 19.8184 14.9775 20.2645 14.8 20.6667C14.6476 21.081 14.3741 21.4399 14.0151 21.6967C13.656 21.9535 13.228 22.0963 12.7867 22.1067H12.6667C11.9594 22.1067 11.2811 22.3876 10.781 22.8877C10.281 23.3878 10 24.0661 10 24.7733C10 25.4806 10.281 26.1589 10.781 26.659C11.2811 27.159 11.9594 27.44 12.6667 27.44H12.8933C13.3224 27.4417 13.7416 27.5688 14.0993 27.8057C14.457 28.0426 14.7376 28.379 14.9067 28.7733C15.0842 29.1755 15.1371 29.6216 15.0587 30.0541C14.9802 30.4866 14.774 30.8858 14.4667 31.2L14.3867 31.28C14.1387 31.5277 13.942 31.8218 13.8078 32.1455C13.6736 32.4692 13.6046 32.8162 13.6046 33.1667C13.6046 33.5171 13.6736 33.8641 13.8078 34.1878C13.942 34.5116 14.1387 34.8057 14.3867 35.0533C14.6343 35.3013 14.9284 35.498 15.2522 35.6322C15.5759 35.7664 15.9229 35.8354 16.2733 35.8354C16.6238 35.8354 16.9708 35.7664 17.2945 35.6322C17.6182 35.498 17.9123 35.3013 18.16 35.0533L18.24 34.9733C18.5542 34.666 18.9534 34.4598 19.3859 34.3813C19.8184 34.3029 20.2645 34.3558 20.6667 34.5333C21.081 34.6857 21.4399 34.9592 21.6967 35.3183C21.9535 35.6773 22.0963 36.1053 22.1067 36.5467V36.6667C22.1067 37.3739 22.3876 38.0522 22.8877 38.5523C23.3878 39.0524 24.0661 39.3333 24.7733 39.3333C25.4806 39.3333 26.1589 39.0524 26.659 38.5523C27.159 38.0522 27.44 37.3739 27.44 36.6667V36.44C27.4417 36.011 27.5688 35.5918 27.8057 35.234C28.0426 34.8763 28.379 34.5957 28.7733 34.4267C29.1755 34.2492 29.6216 34.1962 30.0541 34.2747C30.4866 34.3531 30.8858 34.5593 31.2 34.8667L31.28 34.9467C31.5277 35.1946 31.8218 35.3913 32.1455 35.5255C32.4692 35.6597 32.8162 35.7288 33.1667 35.7288C33.5171 35.7288 33.8641 35.6597 34.1878 35.5255C34.5116 35.3913 34.8057 35.1946 35.0533 34.9467C35.3013 34.699 35.498 34.4049 35.6322 34.0812C35.7664 33.7574 35.8354 33.4104 35.8354 33.06C35.8354 32.7096 35.7664 32.3626 35.6322 32.0388C35.498 31.7151 35.3013 31.421 35.0533 31.1733L34.9733 31.0933C34.666 30.7791 34.4598 30.38 34.3813 29.9475ZM24.6667 28.6667C26.8758 28.6667 28.6667 26.8758 28.6667 24.6667C28.6667 22.4575 26.8758 20.6667 24.6667 20.6667C22.4575 20.6667 20.6667 22.4575 20.6667 24.6667C20.6667 26.8758 22.4575 28.6667 24.6667 28.6667Z" fill="white"/>
</svg>
